<mxfile host="app.diagrams.net" modified="2022-01-12T18:47:40.113Z" agent="5.0 (Macintosh; Intel Mac OS X 10_15_7) AppleWebKit/605.1.15 (KHTML, like Gecko) Version/15.2 Safari/605.1.15" etag="AkhHvjuQrMdUGtwmkHRS" version="16.2.6" type="github">
  <diagram id="CUjgpLcAfTcYUUibaHiA" name="MusicStore_DB_Scheme">
    <mxGraphModel dx="871" dy="645" grid="1" gridSize="10" guides="1" tooltips="1" connect="1" arrows="1" fold="1" page="1" pageScale="1" pageWidth="827" pageHeight="1169" math="0" shadow="0">
      <root>
        <mxCell id="0" />
        <mxCell id="1" parent="0" />
        <mxCell id="hyvi76HJDib1Fh2PSfYy-1" value="Singer" style="swimlane;fontStyle=0;childLayout=stackLayout;horizontal=1;startSize=30;horizontalStack=0;resizeParent=1;resizeParentMax=0;resizeLast=0;collapsible=1;marginBottom=0;" vertex="1" parent="1">
          <mxGeometry x="40" y="80" width="120" height="150" as="geometry" />
        </mxCell>
        <mxCell id="hyvi76HJDib1Fh2PSfYy-2" value="UID" style="text;strokeColor=none;fillColor=none;align=left;verticalAlign=middle;spacingLeft=4;spacingRight=4;overflow=hidden;points=[[0,0.5],[1,0.5]];portConstraint=eastwest;rotatable=0;" vertex="1" parent="hyvi76HJDib1Fh2PSfYy-1">
          <mxGeometry y="30" width="120" height="30" as="geometry" />
        </mxCell>
        <mxCell id="hyvi76HJDib1Fh2PSfYy-3" value="Name" style="text;strokeColor=none;fillColor=none;align=left;verticalAlign=middle;spacingLeft=4;spacingRight=4;overflow=hidden;points=[[0,0.5],[1,0.5]];portConstraint=eastwest;rotatable=0;" vertex="1" parent="hyvi76HJDib1Fh2PSfYy-1">
          <mxGeometry y="60" width="120" height="30" as="geometry" />
        </mxCell>
        <mxCell id="hyvi76HJDib1Fh2PSfYy-4" value="Alias" style="text;strokeColor=none;fillColor=none;align=left;verticalAlign=middle;spacingLeft=4;spacingRight=4;overflow=hidden;points=[[0,0.5],[1,0.5]];portConstraint=eastwest;rotatable=0;" vertex="1" parent="hyvi76HJDib1Fh2PSfYy-1">
          <mxGeometry y="90" width="120" height="30" as="geometry" />
        </mxCell>
        <mxCell id="hyvi76HJDib1Fh2PSfYy-30" value="UID_Genre" style="text;strokeColor=none;fillColor=none;align=left;verticalAlign=middle;spacingLeft=4;spacingRight=4;overflow=hidden;points=[[0,0.5],[1,0.5]];portConstraint=eastwest;rotatable=0;" vertex="1" parent="hyvi76HJDib1Fh2PSfYy-1">
          <mxGeometry y="120" width="120" height="30" as="geometry" />
        </mxCell>
        <mxCell id="hyvi76HJDib1Fh2PSfYy-5" value="Album" style="swimlane;fontStyle=0;childLayout=stackLayout;horizontal=1;startSize=30;horizontalStack=0;resizeParent=1;resizeParentMax=0;resizeLast=0;collapsible=1;marginBottom=0;" vertex="1" parent="1">
          <mxGeometry x="240" y="280" width="120" height="180" as="geometry" />
        </mxCell>
        <mxCell id="hyvi76HJDib1Fh2PSfYy-6" value="UID" style="text;strokeColor=none;fillColor=none;align=left;verticalAlign=middle;spacingLeft=4;spacingRight=4;overflow=hidden;points=[[0,0.5],[1,0.5]];portConstraint=eastwest;rotatable=0;" vertex="1" parent="hyvi76HJDib1Fh2PSfYy-5">
          <mxGeometry y="30" width="120" height="30" as="geometry" />
        </mxCell>
        <mxCell id="hyvi76HJDib1Fh2PSfYy-7" value="Title" style="text;strokeColor=none;fillColor=none;align=left;verticalAlign=middle;spacingLeft=4;spacingRight=4;overflow=hidden;points=[[0,0.5],[1,0.5]];portConstraint=eastwest;rotatable=0;" vertex="1" parent="hyvi76HJDib1Fh2PSfYy-5">
          <mxGeometry y="60" width="120" height="30" as="geometry" />
        </mxCell>
        <mxCell id="hyvi76HJDib1Fh2PSfYy-20" value="Year of creation" style="text;strokeColor=none;fillColor=none;align=left;verticalAlign=middle;spacingLeft=4;spacingRight=4;overflow=hidden;points=[[0,0.5],[1,0.5]];portConstraint=eastwest;rotatable=0;" vertex="1" parent="hyvi76HJDib1Fh2PSfYy-5">
          <mxGeometry y="90" width="120" height="30" as="geometry" />
        </mxCell>
        <mxCell id="hyvi76HJDib1Fh2PSfYy-8" value="Info" style="text;strokeColor=none;fillColor=none;align=left;verticalAlign=middle;spacingLeft=4;spacingRight=4;overflow=hidden;points=[[0,0.5],[1,0.5]];portConstraint=eastwest;rotatable=0;" vertex="1" parent="hyvi76HJDib1Fh2PSfYy-5">
          <mxGeometry y="120" width="120" height="30" as="geometry" />
        </mxCell>
        <mxCell id="hyvi76HJDib1Fh2PSfYy-9" value="UID_Singer" style="text;strokeColor=none;fillColor=none;align=left;verticalAlign=middle;spacingLeft=4;spacingRight=4;overflow=hidden;points=[[0,0.5],[1,0.5]];portConstraint=eastwest;rotatable=0;" vertex="1" parent="hyvi76HJDib1Fh2PSfYy-5">
          <mxGeometry y="150" width="120" height="30" as="geometry" />
        </mxCell>
        <mxCell id="hyvi76HJDib1Fh2PSfYy-10" value="" style="edgeStyle=orthogonalEdgeStyle;rounded=0;orthogonalLoop=1;jettySize=auto;html=1;entryX=1;entryY=0.5;entryDx=0;entryDy=0;" edge="1" parent="1" source="hyvi76HJDib1Fh2PSfYy-9" target="hyvi76HJDib1Fh2PSfYy-2">
          <mxGeometry relative="1" as="geometry" />
        </mxCell>
        <mxCell id="hyvi76HJDib1Fh2PSfYy-11" value="Song" style="swimlane;fontStyle=0;childLayout=stackLayout;horizontal=1;startSize=30;horizontalStack=0;resizeParent=1;resizeParentMax=0;resizeLast=0;collapsible=1;marginBottom=0;" vertex="1" parent="1">
          <mxGeometry x="240" y="80" width="120" height="180" as="geometry" />
        </mxCell>
        <mxCell id="hyvi76HJDib1Fh2PSfYy-12" value="UID" style="text;strokeColor=none;fillColor=none;align=left;verticalAlign=middle;spacingLeft=4;spacingRight=4;overflow=hidden;points=[[0,0.5],[1,0.5]];portConstraint=eastwest;rotatable=0;" vertex="1" parent="hyvi76HJDib1Fh2PSfYy-11">
          <mxGeometry y="30" width="120" height="30" as="geometry" />
        </mxCell>
        <mxCell id="hyvi76HJDib1Fh2PSfYy-13" value="Title" style="text;strokeColor=none;fillColor=none;align=left;verticalAlign=middle;spacingLeft=4;spacingRight=4;overflow=hidden;points=[[0,0.5],[1,0.5]];portConstraint=eastwest;rotatable=0;" vertex="1" parent="hyvi76HJDib1Fh2PSfYy-11">
          <mxGeometry y="60" width="120" height="30" as="geometry" />
        </mxCell>
        <mxCell id="hyvi76HJDib1Fh2PSfYy-23" value="Duration" style="text;strokeColor=none;fillColor=none;align=left;verticalAlign=middle;spacingLeft=4;spacingRight=4;overflow=hidden;points=[[0,0.5],[1,0.5]];portConstraint=eastwest;rotatable=0;" vertex="1" parent="hyvi76HJDib1Fh2PSfYy-11">
          <mxGeometry y="90" width="120" height="30" as="geometry" />
        </mxCell>
        <mxCell id="hyvi76HJDib1Fh2PSfYy-14" value="UID_Singer" style="text;strokeColor=none;fillColor=none;align=left;verticalAlign=middle;spacingLeft=4;spacingRight=4;overflow=hidden;points=[[0,0.5],[1,0.5]];portConstraint=eastwest;rotatable=0;" vertex="1" parent="hyvi76HJDib1Fh2PSfYy-11">
          <mxGeometry y="120" width="120" height="30" as="geometry" />
        </mxCell>
        <mxCell id="hyvi76HJDib1Fh2PSfYy-15" value="UID_Album" style="text;strokeColor=none;fillColor=none;align=left;verticalAlign=middle;spacingLeft=4;spacingRight=4;overflow=hidden;points=[[0,0.5],[1,0.5]];portConstraint=eastwest;rotatable=0;" vertex="1" parent="hyvi76HJDib1Fh2PSfYy-11">
          <mxGeometry y="150" width="120" height="30" as="geometry" />
        </mxCell>
        <mxCell id="hyvi76HJDib1Fh2PSfYy-19" style="edgeStyle=orthogonalEdgeStyle;rounded=0;orthogonalLoop=1;jettySize=auto;html=1;entryX=1;entryY=0.5;entryDx=0;entryDy=0;" edge="1" parent="1" source="hyvi76HJDib1Fh2PSfYy-14" target="hyvi76HJDib1Fh2PSfYy-2">
          <mxGeometry relative="1" as="geometry" />
        </mxCell>
        <mxCell id="hyvi76HJDib1Fh2PSfYy-24" style="edgeStyle=orthogonalEdgeStyle;rounded=0;orthogonalLoop=1;jettySize=auto;html=1;exitX=1;exitY=0.5;exitDx=0;exitDy=0;entryX=1;entryY=0.5;entryDx=0;entryDy=0;" edge="1" parent="1" source="hyvi76HJDib1Fh2PSfYy-15" target="hyvi76HJDib1Fh2PSfYy-6">
          <mxGeometry relative="1" as="geometry" />
        </mxCell>
        <mxCell id="hyvi76HJDib1Fh2PSfYy-25" value="Genre" style="swimlane;fontStyle=0;childLayout=stackLayout;horizontal=1;startSize=30;horizontalStack=0;resizeParent=1;resizeParentMax=0;resizeLast=0;collapsible=1;marginBottom=0;" vertex="1" parent="1">
          <mxGeometry x="40" y="240" width="120" height="90" as="geometry">
            <mxRectangle x="30" y="240" width="70" height="30" as="alternateBounds" />
          </mxGeometry>
        </mxCell>
        <mxCell id="hyvi76HJDib1Fh2PSfYy-26" value="UID" style="text;strokeColor=none;fillColor=none;align=left;verticalAlign=middle;spacingLeft=4;spacingRight=4;overflow=hidden;points=[[0,0.5],[1,0.5]];portConstraint=eastwest;rotatable=0;" vertex="1" parent="hyvi76HJDib1Fh2PSfYy-25">
          <mxGeometry y="30" width="120" height="30" as="geometry" />
        </mxCell>
        <mxCell id="hyvi76HJDib1Fh2PSfYy-27" value="Title" style="text;strokeColor=none;fillColor=none;align=left;verticalAlign=middle;spacingLeft=4;spacingRight=4;overflow=hidden;points=[[0,0.5],[1,0.5]];portConstraint=eastwest;rotatable=0;" vertex="1" parent="hyvi76HJDib1Fh2PSfYy-25">
          <mxGeometry y="60" width="120" height="30" as="geometry" />
        </mxCell>
        <mxCell id="hyvi76HJDib1Fh2PSfYy-31" style="edgeStyle=orthogonalEdgeStyle;rounded=0;orthogonalLoop=1;jettySize=auto;html=1;entryX=0;entryY=0.5;entryDx=0;entryDy=0;" edge="1" parent="1" source="hyvi76HJDib1Fh2PSfYy-30" target="hyvi76HJDib1Fh2PSfYy-26">
          <mxGeometry relative="1" as="geometry" />
        </mxCell>
      </root>
    </mxGraphModel>
  </diagram>
</mxfile>
